# Made in Blockbench 4.11.2
mtllib testing_core:models/render/model.mtl

o cube
v 0.0625 0.5 0.0625
v 0.0625 0.5 -0.0625
v 0.0625 0 0.0625
v 0.0625 0 -0.0625
v -0.0625 0.5 0.0625
v -0.0625 0.5 -0.0625
v -0.0625 0 0.0625
v -0.0625 0 -0.0625
vt 0.0625 0.75
vt 0.0625 1
vt 0 1
vt 0 0.75
vt 0.15625 0.75
vt 0.15625 1
vt 0.09375 1
vt 0.09375 0.75
vt 0.34375 0.9375
vt 0.34375 1
vt 0.28125 1
vt 0.28125 0.9375
vt 0.15625 0.65625
vt 0.15625 0.71875
vt 0.09375 0.71875
vt 0.09375 0.65625
vt 0.25 0.75
vt 0.25 1
vt 0.1875 1
vt 0.1875 0.75
vt 0.0625 0.46875
vt 0.0625 0.71875
vt 0 0.71875
vt 0 0.46875
vn 1 0 0
vn -1 0 0
vn 0 1 0
vn 0 -1 0
vn 0 0 1
vn 0 0 -1
usemtl m_6ba167c2-ee98-24d0-b987-1555fda50775
f 4/1/1 2/2/1 1/3/1
f 4/1/1 1/3/1 3/4/1
f 7/5/2 5/6/2 6/7/2
f 7/5/2 6/7/2 8/8/2
f 1/9/3 2/10/3 6/11/3
f 1/9/3 6/11/3 5/12/3
f 4/13/4 3/14/4 7/15/4
f 4/13/4 7/15/4 8/16/4
f 3/17/5 1/18/5 5/19/5
f 3/17/5 5/19/5 7/20/5
f 8/21/6 6/22/6 2/23/6
f 8/21/6 2/23/6 4/24/6
o Moving
v 0.0625 0.625 0.0625
v 0.0625 0.625 -0.0625
v 0.0625 0.5 0.0625
v 0.0625 0.5 -0.0625
v -0.0625 0.625 0.0625
v -0.0625 0.625 -0.0625
v -0.0625 0.5 0.0625
v -0.0625 0.5 -0.0625
v 0.3125 0.6004348760491298 0.05560751009654326
v 0.3125 0.5733799243068669 -0.06642949079344841
v 0.3125 0.5516200756931331 0.06642949079344841
v 0.3125 0.5245651239508702 -0.05560751009654326
v 0.0625 0.6004348760491298 0.05560751009654326
v 0.0625 0.5733799243068669 -0.06642949079344841
v 0.0625 0.5516200756931331 0.06642949079344841
v 0.0625 0.5245651239508702 -0.05560751009654326
v -0.0625 0.5733799243068669 0.06642949079344841
v -0.0625 0.6004348760491298 -0.05560751009654326
v -0.0625 0.5245651239508702 0.05560751009654326
v -0.0625 0.5516200756931331 -0.06642949079344841
v -0.3125 0.5733799243068669 0.06642949079344841
v -0.3125 0.6004348760491298 -0.05560751009654326
v -0.3125 0.5245651239508702 0.05560751009654326
v -0.3125 0.5516200756931331 -0.06642949079344841
v 0.05560751009654319 0.6004348760491298 -0.31250000000000006
v -0.0664294907934485 0.5733799243068669 -0.31250000000000006
v 0.06642949079344836 0.5516200756931331 -0.31250000000000006
v -0.05560751009654333 0.5245651239508702 -0.31250000000000006
v 0.055607510096543245 0.6004348760491298 -0.0625
v -0.06642949079344844 0.5733799243068669 -0.06249999999999997
v 0.06642949079344841 0.5516200756931331 -0.0625
v -0.05560751009654327 0.5245651239508702 -0.06249999999999997
v 0.06642949079344844 0.5733799243068669 0.0625
v -0.055607510096543245 0.6004348760491298 0.06250000000000003
v 0.05560751009654327 0.5245651239508702 0.0625
v -0.06642949079344841 0.5516200756931331 0.06250000000000003
v 0.0664294907934485 0.5733799243068669 0.31250000000000006
v -0.05560751009654319 0.6004348760491298 0.31250000000000006
v 0.05560751009654333 0.5245651239508702 0.31250000000000006
v -0.06642949079344836 0.5516200756931331 0.31250000000000006
vt 0.046875 0.984375
vt 0.015625 0.984375
vt 0.015625 0.953125
vt 0.046875 0.953125
vt 0.109375 0.984375
vt 0.078125 0.984375
vt 0.078125 0.953125
vt 0.109375 0.953125
vt 0.171875 0.984375
vt 0.140625 0.984375
vt 0.140625 0.953125
vt 0.171875 0.953125
vt 0.234375 0.984375
vt 0.203125 0.984375
vt 0.203125 0.953125
vt 0.234375 0.953125
vt 0.296875 0.984375
vt 0.265625 0.984375
vt 0.265625 0.953125
vt 0.296875 0.953125
vt 0.359375 0.984375
vt 0.328125 0.984375
vt 0.328125 0.953125
vt 0.359375 0.953125
vt 0.421875 0.984375
vt 0.390625 0.984375
vt 0.390625 0.953125
vt 0.421875 0.953125
vt 0.484375 0.984375
vt 0.453125 0.984375
vt 0.453125 0.953125
vt 0.484375 0.953125
vt 0.546875 0.984375
vt 0.515625 0.984375
vt 0.515625 0.953125
vt 0.546875 0.953125
vt 0.609375 0.984375
vt 0.578125 0.984375
vt 0.578125 0.953125
vt 0.609375 0.953125
vt 0.671875 0.984375
vt 0.640625 0.984375
vt 0.640625 0.953125
vt 0.671875 0.953125
vt 0.734375 0.984375
vt 0.703125 0.984375
vt 0.703125 0.953125
vt 0.734375 0.953125
vt 0.796875 0.984375
vt 0.765625 0.984375
vt 0.765625 0.953125
vt 0.796875 0.953125
vt 0.859375 0.984375
vt 0.828125 0.984375
vt 0.828125 0.953125
vt 0.859375 0.953125
vt 0.921875 0.984375
vt 0.890625 0.984375
vt 0.890625 0.953125
vt 0.921875 0.953125
vt 0.984375 0.984375
vt 0.953125 0.984375
vt 0.953125 0.953125
vt 0.984375 0.953125
vt 0.046875 0.921875
vt 0.015625 0.921875
vt 0.015625 0.890625
vt 0.046875 0.890625
vt 0.109375 0.921875
vt 0.078125 0.921875
vt 0.078125 0.890625
vt 0.109375 0.890625
vt 0.171875 0.921875
vt 0.140625 0.921875
vt 0.140625 0.890625
vt 0.171875 0.890625
vt 0.234375 0.921875
vt 0.203125 0.921875
vt 0.203125 0.890625
vt 0.234375 0.890625
vt 0.296875 0.921875
vt 0.265625 0.921875
vt 0.265625 0.890625
vt 0.296875 0.890625
vt 0.359375 0.921875
vt 0.328125 0.921875
vt 0.328125 0.890625
vt 0.359375 0.890625
vt 0.421875 0.921875
vt 0.390625 0.921875
vt 0.390625 0.890625
vt 0.421875 0.890625
vt 0.484375 0.921875
vt 0.453125 0.921875
vt 0.453125 0.890625
vt 0.484375 0.890625
vt 0.546875 0.921875
vt 0.515625 0.921875
vt 0.515625 0.890625
vt 0.546875 0.890625
vt 0.609375 0.921875
vt 0.578125 0.921875
vt 0.578125 0.890625
vt 0.609375 0.890625
vt 0.671875 0.921875
vt 0.640625 0.921875
vt 0.640625 0.890625
vt 0.671875 0.890625
vt 0.734375 0.921875
vt 0.703125 0.921875
vt 0.703125 0.890625
vt 0.734375 0.890625
vt 0.796875 0.921875
vt 0.765625 0.921875
vt 0.765625 0.890625
vt 0.796875 0.890625
vt 0.859375 0.921875
vt 0.828125 0.921875
vt 0.828125 0.890625
vt 0.859375 0.890625
vn 1 0 0
vn -1 0 0
vn 0 1 0
vn 0 -1 0
vn 0 0 1
vn 0 0 -1
vn 1 0 0
vn -1 0 0
vn 0 0.9762960071199334 -0.2164396139381033
vn 0 -0.9762960071199334 0.2164396139381033
vn 0 0.21643961393810282 0.9762960071199334
vn 0 -0.21643961393810282 -0.9762960071199334
vn 1 0 0
vn -1 0 0
vn 0 0.9762960071199334 0.2164396139381033
vn 0 -0.9762960071199334 -0.2164396139381033
vn 0 -0.21643961393810282 0.9762960071199334
vn 0 0.21643961393810282 -0.9762960071199334
vn 0 0 -1
vn 2.1678126119083108e-16 4.805924856701239e-17 1
vn -0.21643961393810324 0.9762960071199333 4.1633363423443346e-17
vn 0.21643961393810326 -0.9762960071199333 -5.55111512312578e-17
vn 0.9762960071199334 0.21643961393810307 -2.1684043449710057e-16
vn -0.9762960071199334 -0.2164396139381031 2.1684043449710054e-16
vn -2.1678126119083108e-16 4.805924856701239e-17 -1
vn 0 0 1
vn 0.21643961393810326 0.9762960071199334 -4.1633363423443364e-17
vn -0.21643961393810326 -0.9762960071199334 5.5511151231257815e-17
vn 0.9762960071199334 -0.21643961393810307 -2.1684043449710057e-16
vn -0.9762960071199334 0.2164396139381031 2.1684043449710064e-16
usemtl m_968e8f47-ba3f-28b1-0519-d290818431e3
f 12/25/7 10/26/7 9/27/7
f 12/25/7 9/27/7 11/28/7
f 15/29/8 13/30/8 14/31/8
f 15/29/8 14/31/8 16/32/8
f 9/33/9 10/34/9 14/35/9
f 9/33/9 14/35/9 13/36/9
f 12/37/10 11/38/10 15/39/10
f 12/37/10 15/39/10 16/40/10
f 11/41/11 9/42/11 13/43/11
f 11/41/11 13/43/11 15/44/11
f 16/45/12 14/46/12 10/47/12
f 16/45/12 10/47/12 12/48/12
f 20/49/13 18/50/13 17/51/13
f 20/49/13 17/51/13 19/52/13
f 23/53/14 21/54/14 22/55/14
f 23/53/14 22/55/14 24/56/14
f 17/57/15 18/58/15 22/59/15
f 17/57/15 22/59/15 21/60/15
f 20/61/16 19/62/16 23/63/16
f 20/61/16 23/63/16 24/64/16
f 19/65/17 17/66/17 21/67/17
f 19/65/17 21/67/17 23/68/17
f 24/69/18 22/70/18 18/71/18
f 24/69/18 18/71/18 20/72/18
f 28/73/19 26/74/19 25/75/19
f 28/73/19 25/75/19 27/76/19
f 31/77/20 29/78/20 30/79/20
f 31/77/20 30/79/20 32/80/20
f 25/81/21 26/82/21 30/83/21
f 25/81/21 30/83/21 29/84/21
f 28/85/22 27/86/22 31/87/22
f 28/85/22 31/87/22 32/88/22
f 27/89/23 25/90/23 29/91/23
f 27/89/23 29/91/23 31/92/23
f 32/93/24 30/94/24 26/95/24
f 32/93/24 26/95/24 28/96/24
f 36/97/25 34/98/25 33/99/25
f 36/97/25 33/99/25 35/100/25
f 39/101/26 37/102/26 38/103/26
f 39/101/26 38/103/26 40/104/26
f 33/105/27 34/106/27 38/107/27
f 33/105/27 38/107/27 37/108/27
f 36/109/28 35/110/28 39/111/28
f 36/109/28 39/111/28 40/112/28
f 35/113/29 33/114/29 37/115/29
f 35/113/29 37/115/29 39/116/29
f 40/117/30 38/118/30 34/119/30
f 40/117/30 34/119/30 36/120/30
f 44/121/31 42/122/31 41/123/31
f 44/121/31 41/123/31 43/124/31
f 47/125/32 45/126/32 46/127/32
f 47/125/32 46/127/32 48/128/32
f 41/129/33 42/130/33 46/131/33
f 41/129/33 46/131/33 45/132/33
f 44/133/34 43/134/34 47/135/34
f 44/133/34 47/135/34 48/136/34
f 43/137/35 41/138/35 45/139/35
f 43/137/35 45/139/35 47/140/35
f 48/141/36 46/142/36 42/143/36
f 48/141/36 42/143/36 44/144/36